<?xml version="1.0" encoding="UTF-8"?><svg id="Calque_2" xmlns="http://www.w3.org/2000/svg" viewBox="0 0 813.91 815.11"><defs><style>.cls-1{fill:#fff;stroke-width:0px;}</style></defs><g id="Calque_1-2"><path id="Union_75" class="cls-1" d="M6.03,475.63c-2.64-15.07-4.42-30.28-5.34-45.56-.9-15.15-.93-30.33-.09-45.48,8.16,3.67,16.28,7.72,24.82,12.36,7.62,4.14,15.42,8.68,23.84,13.88,15.66,9.66,31.27,20.24,46.35,30.48h.01c24.48,16.61,49.79,33.78,76.8,47.89,8.65,24,20.96,46.51,36.5,66.74,23.23,30.34,52.9,55.16,86.86,72.67,11.32,5.83,23.06,10.79,35.13,14.84,24.47,8.24,50.12,12.46,75.95,12.49,53.17.04,104.94-17.09,147.58-48.86,42.33-31.46,73.52-75.61,89.03-126.02-23.61,3.92-54.16,16.12-83.7,27.93h-.02c-23.96,9.54-48.73,19.4-73.94,27.09-12.61,3.9-25.42,7.14-38.37,9.7-13.1,2.6-26.37,4.25-39.71,4.95-5.65.28-11.43.42-17.18.42-43.5,0-89.59-8.09-136.99-24.04l-24.84-8.36,63.91-150.25,20.86,6.47c27.91,8.65,54.02,13.04,77.59,13.04,2.9,0,5.8-.07,8.63-.2,27.19-1.38,65.73-16.79,99.75-30.38h0c50.12-20.04,101.95-40.77,157.72-40.84,4.08,0,8.05.23,12.44.5l2.28.14c39.3,2.4,80.79,14.03,119.93,26.42,1.59.5,3.12,1.15,4.59,1.94h0c6.35,3.4,11.08,9.19,13.14,16.09l.93,3.11c.44,1.49.77,3.02.95,4.56,4.74,40.22,2.55,80.97-6.48,120.46l-.21,1.15c-39.11,187.82-206.45,324.15-397.9,324.15-199.17,0-367.75-142.78-400.84-339.48ZM118.19,263.18c-24.09-14.28-49.28-26.62-75.33-36.89C141.88,25.42,384.99-57.14,585.86,41.89c28.53,14.07,55.31,31.44,79.78,51.76l19.83,16.46-108.53,115.97-17.44-13.73c-87.14-68.8-209.52-70.86-298.93-5.03l-1.08.8c-30.17,22.5-54.9,51.5-72.37,84.84-1.86,3.59-3.67,7.3-5.37,11.02h0c-20.56-13.93-40.9-27.54-63.57-40.8h0Z"/></g></svg>