<?xml version="1.0" encoding="UTF-8"?><svg id="Calque_2" xmlns="http://www.w3.org/2000/svg" xmlns:xlink="http://www.w3.org/1999/xlink" viewBox="0 0 4039.87 815.5"><defs><style>.cls-1{fill:url(#Dégradé_sans_nom_2);stroke-width:0px;}</style><linearGradient id="Dégradé_sans_nom_2" x1="3499.02" y1="2513.7" x2="3500.02" y2="2513.7" gradientTransform="translate(-14135590.05 2050330.29) scale(4039.87 -815.5)" gradientUnits="userSpaceOnUse"><stop offset="0" stop-color="#2b87c5"/><stop offset=".3" stop-color="#2c90b9"/><stop offset=".74" stop-color="#6dac46"/><stop offset="1" stop-color="#76b045"/></linearGradient></defs><g id="Calque_1-2"><path id="Union_75" class="cls-1" d="M3336.51,408.03c0-224.68,182.35-407.47,406.49-407.47,104.17,0,203.39,39.73,279.37,111.88l17.49,16.61-108.66,116.04-17.66-16.86c-45.86-44.02-106.97-68.57-170.54-68.51-136.59,0-247.71,111.39-247.71,248.31s111.12,248.31,247.71,248.31c63.56.04,124.68-24.52,170.55-68.52l16.69-15.84,24.2,23.88,85.43,91.22-17.51,16.61c-76,72.1-175.22,111.81-279.36,111.81-224.14,0-406.49-182.79-406.49-407.47ZM915.99,475.63c-2.64-15.07-4.42-30.28-5.34-45.56-.9-15.15-.93-30.33-.09-45.48,8.16,3.67,16.28,7.72,24.82,12.36,7.62,4.14,15.42,8.68,23.84,13.88,15.66,9.66,31.27,20.24,46.35,30.48h.01c24.48,16.61,49.79,33.78,76.8,47.89,8.65,24,20.96,46.51,36.5,66.74,23.23,30.34,52.9,55.16,86.86,72.67,11.32,5.83,23.06,10.79,35.13,14.84,24.47,8.24,50.12,12.46,75.95,12.49,53.17.04,104.94-17.09,147.58-48.86,42.33-31.46,73.52-75.61,89.03-126.02-23.61,3.92-54.16,16.12-83.7,27.93h-.02c-23.96,9.54-48.73,19.4-73.94,27.09-12.61,3.9-25.42,7.14-38.37,9.7-13.1,2.6-26.37,4.25-39.71,4.95-5.65.28-11.43.42-17.18.42-43.5,0-89.59-8.09-136.99-24.04l-24.84-8.36,63.91-150.25,20.86,6.47c27.91,8.65,54.02,13.04,77.59,13.04,2.9,0,5.8-.07,8.63-.2,27.19-1.38,65.73-16.79,99.75-30.38h0c50.12-20.04,101.95-40.77,157.72-40.84,4.08,0,8.05.23,12.44.5l2.28.14c39.3,2.4,80.79,14.03,119.93,26.42,1.59.5,3.12,1.15,4.59,1.94h0c6.35,3.4,11.08,9.19,13.14,16.09l.93,3.11c.44,1.49.77,3.02.95,4.56,4.74,40.22,2.55,80.97-6.48,120.46l-.21,1.15c-39.11,187.82-206.45,324.15-397.9,324.15-199.17,0-367.75-142.78-400.84-339.48ZM215.73,793.7V223.7h.6V20.93l145.8.72,13.04,15.95,153.9,220.38c-26.25,8.83-52.2,17.02-77.11,24.35-24.89,7.33-49.53,14.02-73.23,19.9v491.48h-163ZM856.25,793.56h-147.04l-11.73-17.09-223.39-332c24.16-6.78,49.16-14.31,74.31-22.36,25.07-8.03,51.01-16.81,77.09-26.11l71.93,102.99v-126.27c16.84-4.39,33.91-7.79,51.15-10.18,15.12-2.08,30.36-3.14,45.61-3.19,10.79,0,21.57.59,32.29,1.78,10.02,1.12,19.96,2.81,29.79,5.04v427.39h0ZM163.38,793.56H0v-299.47c17.67,2.22,35.88,3.9,54.12,5.01s37.08,1.67,55.94,1.67c17.43,0,35.37-.48,53.32-1.43v294.21h0ZM2612.13,793.5h-163.38V170.58h-166.67V20.51h496.2v150.01h-166.15v622.99h0ZM3283.15,793.44h-451.92V20.51h451.92v150.01h-288.54v157.14h284.8v150.01h-284.8v165.77h288.54v150.01h0ZM2228.72,793.44h-451.92V20.51h451.92v150.01h-288.54v157.14h284.8v150.01h-284.8v165.77h288.54v150.01h0ZM110.77,338.76h-.01c-19.24,0-38.31-.7-56.68-2.09-18.35-1.38-36.55-3.48-54.08-6.24V20.93h163.38v316.19c-17.85,1.09-35.54,1.65-52.6,1.65h-.01ZM1028.15,263.18c-24.09-14.28-49.28-26.62-75.33-36.89C1051.84,25.42,1294.95-57.14,1495.82,41.89c28.53,14.07,55.31,31.44,79.78,51.76l19.83,16.46-108.53,115.97-17.44-13.73c-87.14-68.8-209.52-70.86-298.93-5.03l-1.08.8c-30.17,22.5-54.9,51.5-72.37,84.84-1.86,3.59-3.67,7.3-5.37,11.02h0c-20.56-13.93-40.9-27.54-63.57-40.8h0ZM697.41,206.76V20.93h158.85v180.18c-9.65-1.33-19.53-2.34-29.37-3.02-10.17-.7-20.59-1.05-30.98-1.05-15.47,0-31.41.78-47.4,2.33-16.65,1.61-33.84,4.1-51.1,7.39h0Z"/></g></svg>